<svg width="1000" height="620" viewBox="0 0 1000 620" xmlns="http://www.w3.org/2000/svg">
<rect width="1000" height="620" fill="#ffffff"/>
<rect x="45" y="35" width="910" height="550" rx="30" fill="#f8fafc" stroke="#cbd5e1" stroke-width="3"/>
<rect x="80" y="70" width="840" height="75" rx="20" fill="#2563eb"/>
<text x="115" y="118" font-family="Arial, sans-serif" font-size="30" font-weight="700" fill="white">AulaSync - Panel del curso</text>
<rect x="80" y="175" width="260" height="350" rx="18" fill="#ffffff" stroke="#cbd5e1"/>
<text x="105" y="220" font-family="Arial, sans-serif" font-size="23" font-weight="700" fill="#111827">Calendario</text>
<text x="105" y="265" font-family="Arial, sans-serif" font-size="18" fill="#334155">• Quiz: Estadística</text>
<text x="105" y="305" font-family="Arial, sans-serif" font-size="18" fill="#334155">• Task: Python</text>
<text x="105" y="345" font-family="Arial, sans-serif" font-size="18" fill="#334155">• Act. autónoma: IA</text>
<text x="105" y="385" font-family="Arial, sans-serif" font-size="18" fill="#334155">• Entrega: Proyecto</text>
<rect x="370" y="175" width="260" height="350" rx="18" fill="#ffffff" stroke="#cbd5e1"/>
<text x="395" y="220" font-family="Arial, sans-serif" font-size="23" font-weight="700" fill="#111827">Avisos</text>
<rect x="395" y="250" width="205" height="65" rx="12" fill="#dcfce7"/>
<text x="410" y="278" font-family="Arial, sans-serif" font-size="16" fill="#166534">Fecha modificada</text>
<text x="410" y="300" font-family="Arial, sans-serif" font-size="14" fill="#166534">El profesor retrasó la tarea</text>
<rect x="395" y="335" width="205" height="65" rx="12" fill="#fef9c3"/>
<text x="410" y="363" font-family="Arial, sans-serif" font-size="16" fill="#854d0e">Quiz pendiente</text>
<text x="410" y="385" font-family="Arial, sans-serif" font-size="14" fill="#854d0e">Revisar antes del viernes</text>
<rect x="660" y="175" width="260" height="350" rx="18" fill="#ffffff" stroke="#cbd5e1"/>
<text x="685" y="220" font-family="Arial, sans-serif" font-size="23" font-weight="700" fill="#111827">Comentarios</text>
<text x="685" y="265" font-family="Arial, sans-serif" font-size="17" fill="#334155">Compañero 1:</text>
<text x="685" y="292" font-family="Arial, sans-serif" font-size="15" fill="#475569">¿Ya habilitaron el quiz?</text>
<text x="685" y="335" font-family="Arial, sans-serif" font-size="17" fill="#334155">Compañero 2:</text>
<text x="685" y="362" font-family="Arial, sans-serif" font-size="15" fill="#475569">Sí, vence el domingo.</text>
<text x="685" y="405" font-family="Arial, sans-serif" font-size="17" fill="#334155">Compañero 3:</text>
<text x="685" y="432" font-family="Arial, sans-serif" font-size="15" fill="#475569">Subí la fecha al calendario.</text>
</svg>
